<?xml version="1.0" encoding="UTF-8"?>
<!DOCTYPE svg PUBLIC "-//W3C//DTD SVG 1.1//EN" "http://www.w3.org/Graphics/SVG/1.1/DTD/svg11.dtd">
<!-- Creator: CorelDRAW -->
<svg xmlns="http://www.w3.org/2000/svg" xml:space="preserve" width="40.0242mm" height="8.5881mm" version="1.1" style="shape-rendering:geometricPrecision; text-rendering:geometricPrecision; image-rendering:optimizeQuality; fill-rule:evenodd; clip-rule:evenodd"
viewBox="0 0 196.39 42.14"
 xmlns:xlink="http://www.w3.org/1999/xlink"
 xmlns:xodm="http://www.corel.com/coreldraw/odm/2003">
 <defs>
  <style type="text/css">
   <![CDATA[
    .fil0 {fill:#EC3221}
    .fil1 {fill:#FEFEFC}
   ]]>
  </style>
 </defs>
 <g id="Layer_x0020_1">
  <metadata id="CorelCorpID_0Corel-Layer"/>
  <g id="_2054495689232">
   <path class="fil0" d="M196.34 26.7c-0.27,-0.19 -0.24,-0.14 -0.64,-0.14l-6.14 0.01c-0.47,0.06 -0.34,0.41 -0.34,0.95l0 5.35c-0.01,0.72 -0.12,0.79 0.5,0.78l6.62 -0.05 0.03 -0.91c0,-1.01 0.05,-5.77 -0.03,-6z"/>
   <path class="fil1" d="M171.42 15.49c3.3,-0.33 5.58,2.19 5.77,5.28 0.43,6.84 -6.13,7.94 -8.88,5.19 -2.78,-2.77 -2.36,-9.94 3.1,-10.48zm-107.14 -14.73c-2.55,0.71 -1.65,4.59 1.08,3.93 2.26,-0.55 1.63,-4.68 -1.08,-3.93zm-9.97 0.01c-2.6,0.6 -1.73,4.56 1.05,3.91 2.25,-0.52 1.77,-4.56 -1.05,-3.91zm9.29 32.85l2.51 -0 -0.03 -23.86 -2.5 0.01 0.02 23.85zm-10.14 1.29c-0.14,7.12 -5.54,4.33 -6.33,4.32l-0.18 2.23c2.01,1.29 8.93,1.45 9,-6.04l0.04 -25.66 -2.47 0.02c-0.1,2.67 0.11,24.79 -0.07,25.13zm-50.98 -1.29l0.2 -14.7c1.38,-8.91 14.22,-10.83 15.05,-0.1l0.06 14.79 2.48 -0.01c-0.03,-3.93 -0,-7.86 -0.01,-11.78 -0.01,-3.73 -0.1,-7.16 -2.14,-9.54 -2.17,-2.53 -5.14,-3.38 -8.63,-2.81 -4.94,0.82 -6.61,4.41 -6.95,4.7 -0.29,-0.94 0.13,-11.99 -0.09,-14.19l-2.45 0.03 0 33.58 2.49 0.01zm32.4 -1.81c-4.72,0.01 -7.22,-3.36 -6,-6.43 1.7,-4.26 9.37,-3.32 14.74,-3.36 0.03,3.35 0.23,4.92 -2.38,7.48 -1.38,1.36 -3.72,2.3 -6.36,2.3zm-5.52 -15.69c0.45,-0.85 0.65,-2.5 3.02,-3.73 2.8,-1.45 8.16,-1.34 10.15,1.78 1.09,1.71 1.07,3.4 1.12,5.72 -3.7,0.44 -10.78,-0.97 -14.83,1.91 -4.84,3.44 -3.42,12.23 6.07,12.17 6.27,-0.04 8.2,-4.21 8.87,-4.63l-0.01 4.26 2.4 0.02c-0.18,-4.56 0.58,-15.3 -0.67,-18.96 -2.6,-7.6 -16.06,-7 -18.26,0.55 -0.22,0.77 -0.08,0.58 0.69,0.71 0.5,0.08 0.96,0.21 1.46,0.2zm74.38 10.62l-6.61 -2.67c-0.44,0.55 -0.73,1.8 -2.18,2.6 -3.34,1.85 -7.89,-0.01 -7.87,-5.28 0.03,-6.84 7.01,-7.1 9.12,-4.15 0.34,0.47 0.6,1.03 0.93,1.54l6.57 -2.8c-3.29,-10.91 -24.61,-9.66 -24.6,5.42 0.01,11.13 11.96,15.02 19.38,11.27 2.33,-1.18 4.36,-3.37 5.25,-5.92zm36.29 -5.7l-8.86 12.58 8.91 0.02 4.65 -6.84c0.31,0.29 3.86,5.76 4.65,6.82l9.08 0.01c-0.53,-1.07 -8.05,-11.02 -8.89,-12.59l8.34 -11.78 -8.71 -0.02c-0.54,0.61 -4.11,6.15 -4.4,6.35l-4.3 -6.35 -8.87 0.01 8.39 11.79zm-26.24 -2.13c-0.07,-3.02 4.87,-5.81 8.12,-2.92 0.5,0.45 1.4,1.82 1.4,2.92l-9.52 0.01zm15.53 10.64l-4.29 -4.23c-1.79,1.16 -3.05,2.58 -6.52,2.21 -2.25,-0.24 -4.62,-1.87 -4.75,-3.93l17.09 -0.11c0.07,-0.09 1.71,-12.29 -9.45,-14.45 -14.28,-2.77 -20.17,13.99 -11.8,21.53 7.55,6.79 18.36,2.1 19.71,-1.02zm41.53 -20.73c-12.15,0.81 -16.23,15.04 -7.8,22.22 6.02,5.12 18.06,3.87 21.33,-5.06 3.25,-8.89 -3.14,-17.86 -13.53,-17.16z"/>
  </g>
 </g>
</svg>
